<?xml version="1.0" encoding="iso-8859-1"?>
<!-- Generator: Adobe Illustrator 19.0.0, SVG Export Plug-In . SVG Version: 6.00 Build 0)  -->
<svg version="1.1" id="Layer_1" xmlns="http://www.w3.org/2000/svg" xmlns:xlink="http://www.w3.org/1999/xlink" x="0px" y="0px"
	 viewBox="0 0 360.082 405.304" style="enable-background:new 0 0 360.082 405.304;" xml:space="preserve">
<g id="XMLID_55_">
	<g id="XMLID_1_">
		<path id="XMLID_58_" d="M180.041,188.754c-52.04,0-94.377-42.337-94.377-94.377C85.664,42.337,128.001,0,180.041,0
			c52.04,0,94.377,42.337,94.377,94.377C274.418,146.417,232.081,188.754,180.041,188.754z M180.041,25
			c-38.254,0-69.377,31.123-69.377,69.377c0,38.254,31.123,69.377,69.377,69.377c38.255,0,69.377-31.123,69.377-69.377
			C249.418,56.123,218.296,25,180.041,25z"/>
	</g>
	<g id="XMLID_24_">
		<path id="XMLID_57_" d="M347.582,405.304c-6.903,0-12.5-5.597-12.5-12.5c0-85.489-69.551-155.041-155.041-155.041
			C94.551,237.763,25,307.314,25,392.804c0,6.903-5.597,12.5-12.5,12.5S0,399.707,0,392.804
			c0-99.274,80.766-180.041,180.041-180.041c99.275,0,180.041,80.766,180.041,180.041
			C360.082,399.707,354.485,405.304,347.582,405.304z"/>
	</g>
</g>
</svg>
